<svg width="76" height="68" fill="none" xmlns="http://www.w3.org/2000/svg"><path d="M50.94 46.091s3.87 3.564 5.925 7.04c.896 1.531 2.995 3.914 3.717 5.401 2.296 4.876 3.389 10.342 3.389 10.342L40.598 82.89 17.093 68.108s3.214-11.042 4.045-12.616c1.88-3.564 8.68-8.833 8.68-8.833" fill="#EB532A"/><path fill-rule="evenodd" clip-rule="evenodd" d="M25.517 50.914c-1.607 1.562-3.13 3.252-3.932 4.645-.806 1.4-1.66 3.793-2.405 6.248a99.096 99.096 0 0 0-1.707 6.433l-.767-.174a99.75 99.75 0 0 1 1.72-6.488c.745-2.454 1.62-4.926 2.477-6.412.86-1.493 2.451-3.247 4.065-4.817a59.875 59.875 0 0 1 4.34-3.823l.488.618a59.056 59.056 0 0 0-4.28 3.77Z" fill="#10122E"/><path d="M52.1 49.785c-1.815.7-7.084.131-8.746 1.05-3.98 2.186-3.28 3.804-7.325 1.727-.131-.066-.262-.131-.394-.175-3.214-1.312-6.887-.219-8.986 2.536-2.186 2.908-4.679 6.56-4.548 8.068.24 2.668 4.614-1.136 4.592 2.69-.022 3.826.678 7.368 2.667 8.658 1.706 1.115 9.468 5.51 11.436 6.866v.371s.087-.065.24-.196c.153.109.262.175.262.175v-.372c1.903-1.465 8.856-6.735 10.495-7.937 1.903-1.377 1.968-6.56 1.75-10.386-.219-3.826 3.083.875 3.17-1.793.044-1.005.131-3.913-.678-5.816-.393-.918-.13-2.951-.634-3.695-1.268-1.793-3.301-1.77-3.301-1.77Z" fill="#EFA75B"/><path d="M56.925 30.766c-.088 4.154-.634 7.98-2.799 11.61-.962 1.618-1.355 2.842-2.886 4.001-1.29.918-4.176.372-6.253 2.077 0 0-.38.323-.984.727-1.06.71-2.807 1.674-4.395 1.59-.954-.06-1.907-.413-2.71-.817-1.224-.614-2.1-1.347-2.1-1.347-1.203-1.159-4.089-1.377-5.86-1.99-2.077-.765-5.378-7.171-5.597-8.308l-.569-2.165c-.721-1.683-.874-3.542-1.77-5.225-.635-1.093-1.116-1.99-1.356-3.018-.481-2.317-1.05-4.7-1.443-7.018-.722-3.455-2.165-9.096.153-12.026 0 0 2.623-.59 7.302 4.308 2.252 1.99 4.483 5.772 7.303 6.843 0 0 .962-.984 1.53-1.924.635.525 1.837 1.225 2.8 1.093.634 0 1.115-.612 1.596-.612.393 0 1.05.372 1.202.372 1.684.7 1.596-.765 2.558-.7.962 0 .962 1.837 3.04.7l1.049-.088c2.646-2.776 7.915-9.86 12.419-8.855 4.001.984-.721 16.486-2.077 20.247l-.153.525Z" fill="#EB532A"/><path fill-rule="evenodd" clip-rule="evenodd" d="M18.572 9.239c-.974 1.337-1.184 3.286-1.03 5.402.136 1.853.543 3.752.885 5.352l.171.805.002.007.001.008c.269 1.583.619 3.19.968 4.797.16.735.32 1.47.471 2.202.226.96.678 1.81 1.31 2.901l.005.007.003.006c.471.885.743 1.81.985 2.697l.09.333c.208.777.407 1.518.71 2.227l.013.027.58 2.207.002.013c.02.1.082.294.196.577.11.275.262.613.446.994.367.761.859 1.681 1.408 2.59.55.91 1.153 1.8 1.74 2.504.6.72 1.136 1.186 1.546 1.34.56.193 1.222.342 1.926.5.384.087.78.177 1.18.278 1.08.272 2.197.633 2.887 1.29l.025.02.109.086a11.966 11.966 0 0 0 1.877 1.182c.78.39 1.676.718 2.553.774.71.037 1.479-.16 2.217-.467a11.45 11.45 0 0 0 1.93-1.055 13.202 13.202 0 0 0 .933-.688l.011-.01.002-.002.003-.002.003-.002c1.126-.924 2.458-1.227 3.612-1.42.197-.033.385-.062.567-.09.365-.057.7-.11 1.016-.178.466-.1.822-.224 1.076-.403 1.096-.832 1.552-1.668 2.147-2.761.188-.345.39-.716.63-1.12 2.113-3.543 2.655-7.287 2.742-11.412l.001-.054.172-.588.004-.012c.673-1.866 2.186-6.66 3.03-11.103.424-2.225.674-4.333.578-5.932-.048-.802-.181-1.443-.4-1.902-.213-.446-.493-.691-.843-.778-1.005-.223-2.081-.003-3.2.539-1.12.542-2.251 1.393-3.343 2.376-1.501 1.353-2.876 2.906-4.03 4.21a63.085 63.085 0 0 1-1.46 1.615l-.107.111-1.118.094c-.521.274-.961.393-1.35.378a1.561 1.561 0 0 1-.965-.387 3.618 3.618 0 0 1-.298-.287l-.041-.043c-.07-.074-.128-.135-.188-.19-.137-.126-.223-.163-.315-.163h-.028a.398.398 0 0 0-.295.097 1.971 1.971 0 0 0-.215.197c-.059.059-.13.128-.204.194-.186.163-.432.33-.78.384-.328.05-.7-.006-1.14-.182a.82.82 0 0 1-.093-.024 2.045 2.045 0 0 1-.148-.052 11.29 11.29 0 0 1-.172-.07l-.145-.059c-.244-.098-.434-.157-.54-.157a.48.48 0 0 0-.192.058c-.087.04-.175.093-.288.16l-.056.032c-.247.146-.604.353-1.032.362-.582.072-1.195-.102-1.717-.335a6.224 6.224 0 0 1-1.008-.577 12.39 12.39 0 0 1-.774.993 15.923 15.923 0 0 1-.557.616l-.01.009-.002.003-.29-.282.29.282-.186.19-.248-.094c-1.51-.574-2.83-1.856-4.022-3.186-.376-.42-.74-.842-1.094-1.255-.795-.927-1.547-1.803-2.31-2.478l-.013-.011-.012-.012c-2.309-2.417-4.085-3.453-5.256-3.891-.584-.22-1.02-.29-1.298-.308-.1-.007-.18-.007-.24-.004Zm14.285 10.287c.093-.101.214-.236.349-.393.306-.357.672-.818.94-1.26l.242-.402.361.3c.293.241.721.527 1.184.734.47.211.93.32 1.303.27l.027-.005h.027c.193 0 .384-.092.65-.25l.05-.03c.11-.064.236-.14.362-.198.147-.069.33-.134.534-.134.287 0 .621.127.842.215l.165.067.146.06.083.03h.047l.075.03c.379.158.611.174.757.151a.708.708 0 0 0 .37-.193c.055-.047.105-.097.164-.155l.04-.04c.072-.07.16-.154.258-.23.207-.158.473-.283.828-.263.381.005.652.195.849.376.082.076.161.16.23.233l.037.038c.082.087.155.16.23.223.144.12.286.193.48.2.206.009.521-.055 1.005-.32l.075-.041.981-.082c.374-.399.807-.888 1.286-1.428 1.168-1.319 2.61-2.946 4.143-4.329 1.12-1.008 2.316-1.914 3.533-2.503 1.217-.59 2.487-.878 3.733-.6l.004.001.004.001c.649.16 1.096.614 1.384 1.217.283.592.427 1.352.478 2.201.101 1.702-.164 3.889-.59 6.132-.854 4.486-2.376 9.312-3.06 11.215l-.135.461c-.092 4.163-.647 8.054-2.854 11.755-.208.349-.391.687-.57 1.016-.615 1.133-1.17 2.154-2.42 3.101l-.005.004-.005.003c-.39.278-.878.43-1.378.538-.339.073-.714.132-1.093.19l-.528.085c-1.13.19-2.279.466-3.23 1.246l-.002.001v.001l-.016.013-.054.044a14.087 14.087 0 0 1-.944.692c-.544.365-1.27.799-2.07 1.131-.797.332-1.694.574-2.572.528h-.005c-1.03-.066-2.039-.444-2.867-.86a12.78 12.78 0 0 1-2.164-1.387l-.009-.008-.003-.002.259-.311-.26.31-.01-.01-.011-.009c-.514-.496-1.434-.821-2.535-1.099-.351-.089-.722-.172-1.094-.257-.738-.167-1.48-.335-2.082-.543l-.004-.001-.004-.001c-.628-.232-1.282-.852-1.891-1.582-.623-.747-1.249-1.674-1.81-2.603a33.048 33.048 0 0 1-1.446-2.657c-.19-.392-.348-.747-.467-1.043-.114-.28-.2-.53-.238-.713l-.558-2.124c-.321-.757-.533-1.547-.738-2.31l-.088-.328c-.24-.88-.492-1.726-.915-2.522-.632-1.09-1.14-2.032-1.395-3.122l-.002-.005v-.005c-.15-.717-.308-1.445-.467-2.176-.35-1.614-.706-3.25-.978-4.85l-.167-.782c-.342-1.597-.763-3.56-.902-5.473-.163-2.23.044-4.506 1.302-6.096l.089-.112.14-.032.088.395a16.713 16.713 0 0 1-.088-.395h.003l.005-.002a1.207 1.207 0 0 1 .17-.022c.1-.008.24-.012.42 0 .36.023.873.111 1.529.357 1.31.49 3.18 1.605 5.545 4.078.802.71 1.61 1.652 2.421 2.596.346.403.692.806 1.038 1.191 1.115 1.244 2.244 2.327 3.46 2.868Zm7.283-.991h-.004.004Z" fill="#10122E"/><path d="M51.324 30.961c-.24-.765-.81-1.312-1.596-1.465-.635-.153-1.29 0-1.837-.087.087-.525.48-2.23-.722-2.077-.634 0-1.29 1.836-1.683 2.317-.634.919-1.05.7-1.115-.371-.153-1.093.393-2.558-.481-2.777-.634-.088-1.115 1.159-1.356 1.924-.087.372-.481.7-.328-1.99 0-.7 0-2.558-.394-2.623h-.152c-1.116.087-1.925 4.394-2.253 5.619-.24-1.225-1.53-6.472-2.492-5.313-.24.7-.088.984-.153 1.683 0 .372-.088 3.018-.394 2.558-.153-.765-1.05-2.317-1.53-2.077-.875.765-.153 1.837-.394 2.93-.153 1.093-.568 1.312-1.115.306-.328-.48-.874-2.317-1.53-2.383-1.116-.153-.81 1.552-.81 2.077-.568 0-1.202-.153-1.836-.087-.81.153-1.356.612-1.684 1.377-.087.153 0 5.925 5.292 6.013.874 0 1.53-.088 2.252-.372.48-.153.874-.525 1.29-.24l5.444.371c.394-.306.809-.524 1.203-.371.721.306 1.77.852 2.645.852 2.733 0 5.138-1.093 5.925-3.542.219-.087-.109-2.099-.196-2.252Z" fill="#EDA65B"/><path d="M36.825 40.056c-.24-1.225.087-2.45.328-3.696 0 0 .809-2.623 2.077-2.842 3.28-.612 3.608 6.625 3.608 6.625-3.87 1.684-6.013-.087-6.013-.087Z" fill="#F4783F"/><path d="M48.373 40.975c-.24-.525-1.203-.984-1.924-1.094-1.53-.153-6.734.984-6.734.984l-.022.044c-.678-.197-5.313-1.443-6.735-1.29-.721.087-1.77.481-1.99.984-.393.765.088 1.771.482 2.624.48.918 1.552 1.727 2.667 2.427.481.306 1.16.415 1.64.415 4.001.087 4.11-1.64 4.11-1.552l.066-.416.022.022c.153 0-.35 1.727 3.586 1.727.48 0 1.224-.175 1.705-.393 1.115-.7 2.078-.962 2.558-1.88.394-.81.962-1.75.569-2.602Z" fill="#EDA65B"/><path d="M36.74 40.21c.154-.48 3.215.088 3.215.088s2.645-.612 3.039.088c.087.153-.328.7-.328.7s-1.115-.088-1.356.152c-.328.306-.48 1.771-.393 1.771.087 0-.569.766-.875.766-.24 0-.962-.525-.874-.613.087-.087-.088-1.617-.481-1.924-.24-.24-1.115.088-1.444-.087-.196-.24-.502-.94-.502-.94Z" fill="#CF4B28"/><path d="M25.283 36.516c.48 1.224 1.355 2.164 2.558 2.776.809.482 1.53-.765.721-1.224-.809-.459-1.53-1.093-1.836-1.924-.328-.874-1.771-.481-1.443.372ZM51.48 39.272c.874-.613 1.836-1.16 2.405-2.165.48-.765-.81-1.553-1.29-.7-.394.7-1.203 1.16-1.925 1.618-.328.24-.48.613-.24.984.175.372.743.503 1.05.263Z" fill="#EDA65B"/><path d="M42.913 40.451c.088.153-.327.7-.327.7s-1.116-.088-1.356.153c-.328.306-.481 1.771-.394 1.771.088 0-.568.765-.874.765-.24 0-.962-.525-.875-.612.088-.087-.087-1.618-.48-1.924-.241-.24-1.116.087-1.444-.087-.24-.088-.481-.766-.481-.766" fill="#CF4B28"/><path d="M39.948 44.147c-.393 0-1.29-.984-1.202-1.094 0-.306-.153-1.377-.328-1.618h-.569c-.328 0-.634.088-.809-.087-.328-.153-.568-.7-.634-.918-.087-.153 0-.306.153-.372.153-.088.328 0 .394.153.087.306.328.612.393.612h.481c.394 0 .722-.087.962.153.481.372.569 1.684.569 1.771v.306c.153.153.393.306.568.372.153-.087.394-.372.569-.525 0-.153 0-.371.087-.765.153-.853.394-1.093.481-1.159.24-.24.962-.24 1.443-.24.088-.153.153-.24.153-.306 0-.153 0-.24.153-.306.154-.088.328-.088.394.087.087.087.24.372-.394 1.093-.087.088-.153.153-.24.088-.481 0-1.05 0-1.115.087-.153.153-.328 1.093-.328 1.378v.153c-.066.218-.7 1.05-1.18 1.137Z" fill="#131841"/><path fill-rule="evenodd" clip-rule="evenodd" d="m42.727 34.142.22-.339.221-.339.006.004.025.016.106.062c.094.053.232.127.406.206.348.16.828.34 1.365.428.537.088 1.117.083 1.677-.113.554-.193 1.116-.581 1.611-1.302l.667.459c-.587.853-1.285 1.354-2.012 1.607-.72.251-1.443.251-2.073.148a6.24 6.24 0 0 1-1.573-.492 6.307 6.307 0 0 1-.631-.335l-.01-.007-.004-.002h-.001ZM30.238 33.955l.263-.307.263-.307.006.005.023.019a5.495 5.495 0 0 0 .473.334c.325.205.778.446 1.3.603.522.157 1.098.226 1.68.104.575-.122 1.183-.437 1.77-1.093l.603.54c-.694.775-1.452 1.185-2.206 1.344-.75.158-1.467.064-2.08-.12a6.23 6.23 0 0 1-1.499-.694 6.305 6.305 0 0 1-.583-.416l-.009-.008-.003-.003h-.001Z" fill="#10122E"/><path d="M22.405 30.438c1.356-1.224 2.165-3.914 2.493-6.078-.087.306 2.318.371 3.695-1.094.962-.984.394-1.77-.153-3.017-1.53-3.148-4.089-5.62-6.56-7.937-.633-.612-1.29-2.164-2.404-1.77-.875.305-.81 2.841-.634 3.629.896 6.625 3.563 16.267 3.563 16.267ZM55.654 29.737c-1.29-1.224-2.645-3.783-2.886-5.86 0 .306-2.317.306-3.607-1.159-.875-.983-.328-1.683.328-2.776 1.683-2.843 4.329-5.095 6.887-7.238.721-.524 1.443-1.312 2.492-.852.875.371.635 2.077.481 2.777-1.29 7.412-3.695 15.108-3.695 15.108Z" fill="#fff"/><path d="M55.8 19.723c-1.77.46-3.695 1.443-4.526 3.105-.371-1.946 1.465-4.133 3.018-5.182.48-.306 0-1.093-.481-.765-1.925 1.377-3.936 4-3.368 6.384.088.262.328.328.525.306l-.065.263c-.088.524.809.765.874.24.394-1.924 2.405-3.017 4.242-3.455.59-.218.35-1.049-.219-.896ZM23.68 17.648c-.48-.306-.874.372-.48.766 1.267.896 2.82 2.733 3.017 4.416-.831-1.661-2.712-2.645-4.526-3.104-.569-.154-.81.7-.24.852 1.836.481 3.847 1.553 4.24 3.455.088.328.482.371.7.24.22.131.569.088.657-.24.634-2.383-1.444-5.095-3.368-6.385Z" fill="#ED662B"/><path d="M28.105 18.935c-1.355-2.318-3.28-4.242-5.203-6.078l-2.078-2.318c-.393-.372-1.202-.525-1.683-.087-1.05.918-.809 2.93-.634 4.154.328 2.383.809 4.7 1.355 7.018a145.326 145.326 0 0 0 2.165 8.856c0 .153.153.24.24.24.088.088.241 0 .394-.087 1.53-1.465 2.165-3.695 2.493-5.773.962.153 2.558-.524 2.951-.765 2.318-1.312 1.028-3.454 0-5.16Zm-.568 4.788c-.394.24-.875.372-1.356.481-.153 0-.874 0-.874.088-.088-.306-.634-.372-.722 0-.328 1.836-.809 3.914-1.99 5.379-1.355-5.007-2.558-10.167-3.367-15.262-.153-.853-.24-4.613 1.356-3.017l1.53 1.77c.722.7 1.444 1.466 2.165 2.165a20.487 20.487 0 0 1 3.76 5.226c.241.481.482.853.57 1.312.371.787-.438 1.465-1.072 1.858ZM57.989 11.325c-.722.088-1.356.613-1.837 1.094-.962.852-1.924 1.618-2.886 2.449a24.034 24.034 0 0 0-4.417 5.378c-.962 1.618-.153 2.93 1.53 3.695.329.153 1.444.525 2.166.481.393 2.078 1.443 4.09 2.886 5.554.153.088.24.088.393.088.088 0 .153-.088.24-.241.875-2.777 1.597-5.62 2.318-8.483.569-2.318 1.115-4.767 1.443-7.172.088-1.312-.021-2.93-1.836-2.842Zm1.027 2.69c-.328 3.454-1.355 7.018-2.252 10.407-.393 1.553-.809 3.083-1.29 4.548-1.29-1.465-2.077-3.301-2.405-5.225-.087-.372-.634-.306-.721 0 .087-.24.153-.154-.153-.088-.328 0-.634-.087-.962-.153-.875-.24-2.165-.853-2.252-1.837-.088-.7.721-1.618 1.115-2.23.568-.853 1.202-1.618 1.836-2.383 1.203-1.312 2.493-2.383 3.849-3.542.568-.481 1.115-.984 1.836-1.378 1.487-.809 1.487 1.116 1.4 1.88Z" fill="#131841"/><path d="M39.387 57.24c-.83.918-.809 3.607.11 4.088 2.099 1.116 3.148-.94 2.71-1.53-.611-.809-.633-2.34-.764-3.345-.175-1.356.94-1.837.743-2.034-.197-.197-1.443-.24-1.859.744-.437.984-.634 1.814-.634 1.814s-.153.066-.306.263ZM58.826 56.822c.831.918.81 3.608-.109 4.089-2.099 1.115-3.148-.94-2.711-1.53.612-.81.634-2.34.765-3.346.175-1.356-.94-1.837-.743-2.033.196-.197 1.443-.241 1.858.743.438.984.634 1.815.634 1.815s.131.065.306.262Z" fill="#EFA75B"/><path d="M49.756 51.16s.962.678.153 1.028c-2.274.984-3.433 2.186-3.455 2.973-.044.787.525 1.99 1.421 1.88.766-.087.919-.633 1.487-1.377 1.203-1.487 3.017-1.858 4.001-1.53 2.537.809 3.062 5.007.372 7.04-2.492 1.859-2.077 1.356-4.198 2.558-1.618.919-1.18 1.706-.656 2.296.59.656 2.1.875 3.87.328.897-.284 1.596-.481 2.1-.83.415-.285 2.645.261 2.842.72l3.06 4.22C59.399 72.02 69.5 72.5 67.51 65.678c-1.093-.743-.634-.153-1.902-5.16-1.247-4.854-4.089-9.795-5.991-10.867-1.16-.656-2.45-2.295-3.192-2.23-1.247.11-1.75 1.137-1.64 1.684 0 0-2.23-.656-3.346-.853-.94-.153-1.749.831-1.924 1.771-.044.219-.044.437.022.59.284.613.416 1.29 2.449 1.859 0 0 1.968.328 2.077.328" fill="#EB532A"/><path fill-rule="evenodd" clip-rule="evenodd" d="M58.36 48.202c.477.419.943.826 1.385 1.077.54.303 1.11.858 1.675 1.562.57.71 1.154 1.6 1.714 2.601a30.058 30.058 0 0 1 2.787 6.945v.001c.318 1.256.528 2.16.68 2.822l.013.054c.147.637.236 1.022.318 1.281.08.255.14.34.206.405.07.067.715 1.08.8 1.514.076.387 0 .5 0 1.5.175.118-.597 1.146-.57 1.363.025.198.647.982.57 1.137-.15.307-1.031-1.452-1.373-1.137-.697.642-1.213-.637-2.242 0-1.032.638-2.075 1.201-2.785 1.51-.178.076-.34.14-.48.185-.13.042-.277.08-.407.08a.512.512 0 0 1-.296-.09.44.44 0 0 1-.181-.405.542.542 0 0 1 .044-.166l-2.928-4.036-.008-.02a.384.384 0 0 0-.041-.033 1.473 1.473 0 0 0-.241-.134 4.83 4.83 0 0 0-.803-.269 5.064 5.064 0 0 0-.844-.143 1.672 1.672 0 0 0-.289 0 .4.4 0 0 0-.07.013c-.5.343-1.163.55-1.904.783l-.284.09h-.003c-.927.286-1.8.377-2.531.302-.722-.073-1.356-.313-1.742-.741l-.002-.002c-.264-.297-.612-.75-.572-1.31.041-.585.483-1.102 1.327-1.581.713-.405 1.14-.618 1.48-.788.692-.345 1.023-.51 2.676-1.743a4.135 4.135 0 0 0 1.62-3.638c-.103-1.299-.801-2.38-1.876-2.722l-.003-.001h-.002c-.394-.132-1.006-.134-1.675.085a4.089 4.089 0 0 0-1.898 1.317 9.497 9.497 0 0 0-.33.465l-.018.028a5.093 5.093 0 0 1-.332.453c-.256.3-.57.52-1.067.576-.657.08-1.146-.331-1.435-.779-.289-.447-.445-1.023-.42-1.503.019-.556.415-1.145 1.01-1.684.617-.558 1.514-1.125 2.679-1.63a.61.61 0 0 0 .05-.023 2.237 2.237 0 0 1-.261-.322l-.008-.006-.004-.003.003-.004a3.486 3.486 0 0 1-.29-.56 5.849 5.849 0 0 0-.06-.136l-.002-.005-.002-.005c-.11-.258-.096-.568-.047-.817a2.95 2.95 0 0 1 .781-1.495c.399-.403.955-.689 1.587-.586h.002l.003.001c.577.102 1.429.32 2.125.508.302.081.578.159.794.22a1.95 1.95 0 0 1 .366-.74c.333-.42.867-.759 1.599-.823m-1.606 2.07-.11.372-.024-.007-.072-.02a59.259 59.259 0 0 0-1.15-.323c-.696-.188-1.516-.397-2.054-.492-.308-.05-.625.08-.909.366a2.174 2.174 0 0 0-.569 1.093v.006c-.038.183-.024.308-.004.357l.078.175c.054.121.102.23.16.332l.02.018a1.814 1.814 0 0 1 .345.406c.275.224.737.469 1.575.705l.064.01.224.038a280.996 280.996 0 0 0 1.393.224 18.634 18.634 0 0 0 .321.047H54v.776c-.046 0-.121-.01-.17-.017h-.004l-.255-.038a92.6 92.6 0 0 1-1.402-.227l-.225-.037-.085-.014.064-.383-.064.383-.02-.003-.02-.006c-.617-.172-1.083-.36-1.44-.562-.1.112-.233.197-.379.26m4.722-3.439-.11.372.616.182-.126-.63c-.027-.136.02-.416.236-.689.203-.257.543-.487 1.058-.532.05-.004.175.022.407.17.217.138.466.34.745.582.09.077.183.159.278.242.476.418 1.018.894 1.537 1.188.412.231.91.697 1.452 1.372.536.669 1.097 1.52 1.642 2.494a29.288 29.288 0 0 1 2.712 6.758c.316 1.248.524 2.146.676 2.806l.021.09c.139.602.234 1.014.326 1.304.1.317.21.537.404.726.126.123.275.307.405.495.206.298.137.78.137.78v.85s.128.532-.2.834c-.642.593-2.01-.425-3.024.203-1.013.627-2.022 1.17-2.685 1.457a6.397 6.397 0 0 1-.217.09l-3.049-4.204a.888.888 0 0 0-.267-.287 2.218 2.218 0 0 0-.373-.21 5.59 5.59 0 0 0-.938-.317 5.839 5.839 0 0 0-.98-.165 2.432 2.432 0 0 0-.428.004.904.904 0 0 0-.409.135l-.002.002c-.397.276-.942.448-1.725.694l-.268.085c-.844.26-1.61.333-2.223.271-.623-.063-1.037-.26-1.242-.487-.26-.293-.393-.528-.378-.74.013-.186.162-.52.936-.96.666-.378 1.082-.586 1.423-.756.72-.361 1.106-.554 2.815-1.829l.002-.001c1.463-1.106 2.048-2.798 1.927-4.32-.12-1.51-.952-2.932-2.412-3.4-.59-.195-1.376-.17-2.16.086a4.865 4.865 0 0 0-2.263 1.57l-.004.005-.003.004c-.14.183-.257.355-.357.504l-.02.03c-.109.16-.193.283-.28.384a.78.78 0 0 1-.565.31h-.003c-.24.029-.482-.106-.69-.43-.208-.32-.314-.738-.297-1.044v-.011c.007-.229.2-.633.756-1.136.537-.486 1.356-1.012 2.465-1.492m8.36-4.307-.304-.265Zm-.304-.265a7.571 7.571 0 0 0-.837-.65Zm-.837-.65c-.255-.162-.57-.316-.891-.287Z" fill="#10122E"/><path d="M57.87 50.392c-.11-.524-1.75-1.99-2.406-1.158-.896 1.18 3.061 4.241 2.405 1.158ZM53.236 51.137c-.022-.46-1.706-.94-2.712-.547-.984.438 2.82 2.318 2.712.547Z" fill="#F89942"/><path fill-rule="evenodd" clip-rule="evenodd" d="M54.543 49.349c-.151-.609-.05-1.19.452-1.512l.42.653c-.11.07-.228.233-.118.673v.002l.001.002c.288 1.211 1.364 2.059 2.276 2.546l-.366.685c-.968-.518-2.296-1.506-2.665-3.049Z" fill="#10122E"/><path d="M44.44 52.057c2.427.437 3.913 1.486 4.132 2.252.219.765-.59 1.399-1.4 1.793-.808.393-1.18.24-2.142-.241s-1.64-.284-2.383.088c-1.596.787-1.706 3.782 0 5.706 1.705 1.924 3.039 1.18 4.81 1.771 1.574.525 1.246 2.165 1.159 2.427-.306.831-1.334 1.225-3.193 1.072-.94-.066-1.705-.438-2.295-.503-1.837-.219-4.395 2.689-4.395 2.689-.219 1.552-3.04 11.326-2.886 11.61.153.284-9.468-5.553-9.468-5.553s4.526-5.27 5.16-11.152c.525-4.963.438-9.051 3.302-11.785.962-.918 1.946-2.558 2.646-2.776a1.98 1.98 0 0 1 1.858.393 8.297 8.297 0 0 1 3.214-.984c.962-.109 1.902.394 2.274 1.29.088.197.131.416.11.569-.132.656.13 1.334-2.296 2.602" fill="#EB532A"/><path fill-rule="evenodd" clip-rule="evenodd" d="M44.473 50.305c-.3-.723-1.066-1.145-1.872-1.053h-.005a7.908 7.908 0 0 0-3.064.937l-.238.132-.205-.178a1.591 1.591 0 0 0-1.489-.316c-.083.026-.221.115-.419.305a8.555 8.555 0 0 0-.62.697c-.091.11-.185.227-.282.346-.368.457-.773.958-1.172 1.339-1.353 1.291-2.022 2.911-2.415 4.852-.279 1.375-.413 2.877-.561 4.519-.063.699-.128 1.423-.207 2.174-.326 3.02-1.646 5.863-2.87 7.937a28.785 28.785 0 0 1-2.093 3.072l.03.02a848.139 848.139 0 0 0 4.377 2.631c1.192.712 2.379 1.414 3.256 1.92.365.21.674.385.907.512l.005-.025c.065-.305.165-.722.288-1.214.248-.983.593-2.283.95-3.619l.084-.314c.33-1.236.663-2.486.933-3.534.295-1.148.505-2.025.556-2.387l.016-.115.077-.087.291.257-.291-.257.003-.003.006-.007.023-.026.089-.096a14.026 14.026 0 0 1 1.436-1.34c.447-.36.964-.723 1.498-.982.528-.257 1.111-.431 1.675-.364.283.031.599.123.904.213l.175.05c.377.108.772.208 1.2.238h.005c.903.075 1.564.012 2.019-.146.44-.153.669-.385.775-.666.03-.094.115-.492.03-.91-.081-.396-.312-.81-.945-1.021a5.498 5.498 0 0 0-1.178-.238l-.355-.034c-.275-.026-.562-.053-.838-.099-.848-.142-1.69-.477-2.607-1.51a5.332 5.332 0 0 1-1.336-3.543c.014-1.165.473-2.286 1.453-2.77.386-.192.792-.36 1.247-.402.464-.043.946.047 1.483.315.495.248.772.374 1.015.412.21.033.423.003.784-.173.384-.187.74-.418.968-.67.225-.247.287-.462.228-.667-.03-.108-.119-.263-.3-.449a3.665 3.665 0 0 0-.761-.572c-.616-.362-1.473-.698-2.545-.914-.366.36-.922.747-1.766 1.188l-.36-.688c1.195-.624 1.66-1.07 1.859-1.39.14-.227.158-.38.183-.593.012-.096.025-.204.05-.337a.813.813 0 0 0-.08-.349l-.002-.004-.002-.004Zm.62 1.492c.987.23 1.808.56 2.436.93.374.22.685.456.922.699.234.239.414.502.493.777.16.56-.074 1.045-.4 1.404-.324.355-.778.638-1.203.845-.448.218-.825.308-1.244.242-.385-.06-.775-.25-1.242-.484-.425-.213-.763-.265-1.064-.237-.31.029-.614.145-.972.324l-.002.001c-.615.304-1.01 1.074-1.022 2.084a4.556 4.556 0 0 0 1.14 3.017c.79.89 1.466 1.145 2.155 1.26.248.042.487.064.747.088.128.012.26.024.401.04.413.044.86.112 1.34.273.94.313 1.333.982 1.46 1.602a2.81 2.81 0 0 1-.056 1.315l-.002.006-.002.006c-.201.547-.638.924-1.25 1.137-.6.208-1.382.265-2.336.187a6.554 6.554 0 0 1-1.356-.265l-.2-.058c-.306-.089-.543-.158-.753-.181h-.003c-.353-.043-.778.064-1.246.291-.462.225-.928.548-1.35.888a13.225 13.225 0 0 0-1.355 1.264l-.032.035c-.08.459-.29 1.32-.555 2.351-.27 1.052-.604 2.305-.934 3.54l-.084.315a281.18 281.18 0 0 0-.947 3.609c-.123.489-.22.894-.281 1.184a5.407 5.407 0 0 0-.067.373.393.393 0 0 1-.473.453.743.743 0 0 1-.148-.05 4.88 4.88 0 0 1-.308-.154 40.675 40.675 0 0 1-1.063-.597 270.36 270.36 0 0 1-3.267-1.925 788.397 788.397 0 0 1-4.685-2.82l-.108-.065.2-.332-.2.332-.392-.238.298-.347.003-.003.008-.01a6.49 6.49 0 0 0 .177-.215c.122-.152.298-.377.512-.665a28.017 28.017 0 0 0 1.603-2.421c1.198-2.03 2.457-4.763 2.766-7.625.076-.718.14-1.424.201-2.114.15-1.663.29-3.232.578-4.65.41-2.028 1.13-3.82 2.64-5.26.36-.343.72-.79 1.084-1.241l.306-.376c.228-.278.458-.547.681-.762.214-.207.461-.405.727-.488h.001a2.37 2.37 0 0 1 2.01.304 8.734 8.734 0 0 1 3.136-.91c1.117-.126 2.228.456 2.672 1.523.103.233.173.527.137.776l-.001.01-.002.011a2.33 2.33 0 0 0-.025.174c-.024.209-.06.509-.204.823Z" fill="#10122E"/><path d="M36.261 53.524c-.13-.372 1.05-2.23 2.187-2.318 1.596-.11-1.378 4.592-2.187 2.318ZM41.249 51.817c-.066-.743 1.967-1.617 2.886-1.093.918.525-2.712 3.061-2.886 1.093ZM45.035 54.048c.503-.11 2.143.328 2.055 1.465-.087 1.137-4.526-.919-2.055-1.465Z" fill="#F89942"/><path d="m38.163 54.726 1.269-1.355c.656-.7.918-1.728.568-2.646-.131-.372-.35-.678-.634-.787" fill="#EB532A"/><path fill-rule="evenodd" clip-rule="evenodd" d="M40.372 50.59c-.146-.411-.42-.846-.859-1.015l-.278.725c.127.049.29.224.407.554l.002.004.001.005c.291.764.078 1.638-.489 2.242l-1.268 1.356.567.53 1.268-1.355c.744-.795 1.055-1.974.65-3.045Z" fill="#10122E"/><path d="M40.038 63.932c2.318.503 2.777-1.75 2.209-2.187-.81-.612-.919-1.268-1.312-2.208-.525-1.246.087-2.82-.153-2.952-.241-.13-.94.372-1.597 1.203-1.727 2.165-.153 5.925.853 6.144ZM58.211 57.654c.897.852 1.115 3.52.24 4.066-2.01 1.29-3.214-.655-2.82-1.29.525-.852.437-2.383.481-3.389.066-1.355-1.093-1.749-.918-1.946.175-.218 1.4-.371 1.924.569.503.94.787 1.75.787 1.75s.11.065.306.24Z" fill="#EFA75B"/><path d="M64.575 42.7s8.768-3.06 7.171-6.1c-1.596-3.06-3.716-1.202-4.788 0 0 0-1.334-3.192-2.93-2.799-1.574.394-1.312 3.17.547 8.9Z" fill="#EB532A"/><path fill-rule="evenodd" clip-rule="evenodd" d="M67.066 35.92c.523-.524 1.22-1.087 1.99-1.294.511-.137 1.064-.12 1.605.172.53.286 1.01.815 1.43 1.622.504.96.152 1.893-.493 2.664-.642.768-1.637 1.463-2.645 2.042a26.542 26.542 0 0 1-2.882 1.406 30.28 30.28 0 0 1-1.265.498l-.075.027-.02.007-.007.002-.128-.366.127.366-.374.131-.123-.377c-.93-2.866-1.474-5.032-1.578-6.543-.053-.754 0-1.387.202-1.873.211-.51.583-.849 1.105-.98h.001c.544-.134 1.042.048 1.446.33.402.28.748.683 1.027 1.074.277.39.502.79.657 1.092Zm-2.245 6.276c.233-.088.56-.217.95-.38a25.76 25.76 0 0 0 2.795-1.363c.985-.566 1.883-1.206 2.436-1.867.55-.657.695-1.246.401-1.806-.378-.724-.762-1.11-1.111-1.3-.34-.182-.683-.199-1.035-.104-.742.2-1.474.882-2.008 1.482l-.41.46-.238-.568v-.002l-.003-.005-.01-.024a6.935 6.935 0 0 0-.208-.435 8.259 8.259 0 0 0-.604-1.006c-.254-.358-.54-.68-.838-.887-.294-.206-.562-.275-.816-.213-.264.066-.45.222-.575.523-.134.324-.194.816-.145 1.522.093 1.344.568 3.307 1.419 5.973Z" fill="#10122E"/><path d="M41.943 11.454S42.839 9.552 44.785 8c1.968-1.552 3.936-4.416 2.602-6.384-1.334-1.99-4.613.175-5.488 1.727 0 0-1.946-3.476-3.301-2.886-1.356.59-1.815 5.291 3.345 10.998Z" fill="#EB532A"/><path fill-rule="evenodd" clip-rule="evenodd" d="M41.92 2.629A6.748 6.748 0 0 1 44.314.796c.584-.26 1.217-.417 1.816-.355a2.103 2.103 0 0 1 1.58.957c.78 1.151.562 2.525-.037 3.737-.602 1.218-1.628 2.365-2.646 3.169a10.721 10.721 0 0 0-2.696 3.243l-.029.057-.006.013-.001.002-.249.527-.39-.432c-2.618-2.895-3.834-5.56-4.21-7.607-.188-1.022-.169-1.9 0-2.58.166-.662.497-1.209.997-1.427.518-.225 1.04-.037 1.455.233.421.274.821.689 1.159 1.098.34.413.636.843.844 1.167l.02.03Zm-.052 8.154a11.495 11.495 0 0 1 2.676-3.087l.002-.001c.949-.75 1.89-1.81 2.43-2.904.544-1.1.644-2.142.09-2.958V1.83a1.328 1.328 0 0 0-1.015-.618c-.418-.043-.91.065-1.422.292-1.032.458-2.001 1.336-2.391 2.028l-.34.602-.337-.603V3.53l-.004-.006-.016-.027a12.829 12.829 0 0 0-1.083-1.572c-.319-.386-.66-.73-.984-.942-.332-.216-.56-.24-.72-.171-.178.077-.413.34-.554.903-.137.547-.164 1.31.01 2.251.328 1.786 1.37 4.17 3.658 6.817ZM40.27 44.122a.405.405 0 0 0-.686.114c-.063.162-.284.402-.711.638-.41.226-.954.416-1.56.514-1.215.195-2.606.007-3.646-.896a.405.405 0 0 0-.53.611c1.276 1.108 2.936 1.303 4.305 1.083a5.704 5.704 0 0 0 1.822-.604c.29-.16.557-.352.762-.573a4.965 4.965 0 0 0 1.587.911c1.28.445 3.096.473 5.307-1.005a.404.404 0 1 0-.45-.672c-2.009 1.343-3.56 1.271-4.592.913a4.158 4.158 0 0 1-1.515-.936 2.31 2.31 0 0 1-.09-.095l-.002-.003m0 0" fill="#10122E"/><path d="M66.345 16.724s9.27-.612 8.527-3.98c-.722-3.366-3.258-2.142-4.614-1.267 0 0-.437-3.433-2.077-3.455-1.618-.065-2.12 2.711-1.836 8.702Z" fill="#EB532A"/><path fill-rule="evenodd" clip-rule="evenodd" d="M68.192 7.634c.559.009.99.311 1.304.688.313.374.54.852.704 1.302.164.449.274.894.343 1.226.645-.366 1.466-.723 2.263-.718.53.003 1.057.166 1.5.59.435.417.755 1.053.946 1.94.234 1.061-.35 1.87-1.177 2.443-.822.571-1.965.977-3.09 1.268a26.431 26.431 0 0 1-3.153.587 30.294 30.294 0 0 1-1.432.149l-.021.001-.008.001-.026-.387.026.387-.395.026-.019-.395c-.142-2.998-.09-5.232.213-6.718.15-.741.372-1.338.697-1.752.34-.433.788-.659 1.325-.638Zm-1.477 8.67c.248-.023.6-.06 1.018-.113a25.659 25.659 0 0 0 3.058-.57c1.099-.284 2.134-.662 2.841-1.153.703-.488.999-1.018.861-1.64v-.002c-.17-.796-.438-1.27-.724-1.543-.277-.266-.604-.373-.968-.375-.768-.005-1.655.458-2.332.894l-.517.334-.078-.61v-.008a5.907 5.907 0 0 0-.02-.128 8.22 8.22 0 0 0-.383-1.5c-.15-.41-.34-.795-.57-1.07-.228-.273-.466-.407-.724-.41h-.011c-.27-.011-.488.086-.688.34-.216.276-.406.735-.547 1.429-.27 1.321-.334 3.34-.216 6.125Z" fill="#10122E"/><path d="M10.941 39.858s-.284-9.358-4.635-9.51c-2.209-.088-2.908 2.732-2.274 4.285 0 0-3.258.175-3.586 1.508-.328 1.334.415 5.335 10.495 3.717Z" fill="#EB532A"/><path fill-rule="evenodd" clip-rule="evenodd" d="M3.745 31.725c.414-.99 1.263-1.818 2.575-1.766 1.248.044 2.18.754 2.862 1.714.678.954 1.136 2.19 1.449 3.389.314 1.204.488 2.399.584 3.29a25.068 25.068 0 0 1 .113 1.464v.022l.001.007-.388.013.388-.012.01.341-.336.054c-5.071.814-7.902.236-9.432-.815C.014 38.356-.127 36.847.07 36.048c.119-.482.49-.814.881-1.041.397-.23.875-.388 1.32-.498.447-.11.881-.176 1.202-.214l.047-.006a4.35 4.35 0 0 1 .226-2.564Zm.308 3.295h-.007l-.025.002a7.168 7.168 0 0 0-.457.044c-.3.036-.702.097-1.11.197-.41.101-.808.238-1.114.415-.312.181-.471.37-.517.556-.131.534-.064 1.692 1.188 2.552 1.25.859 3.741 1.464 8.525.742a22.375 22.375 0 0 0-.656-4.27c-.303-1.16-.731-2.292-1.33-3.136-.596-.837-1.33-1.355-2.258-1.387h-.001c-.896-.036-1.5.502-1.83 1.29-.336.803-.344 1.789-.07 2.46l.207.505-.545.03Z" fill="#10122E"/><path d="M12.692 10.603s3.41-7.719-.066-9.555c-1.77-.94-3.432 1.093-3.52 2.602 0 0-2.711-1.137-3.52-.175-.81.962-1.75 4.504 7.106 7.128Z" fill="#EB532A"/><path fill-rule="evenodd" clip-rule="evenodd" d="M9.977 1.141c.73-.653 1.762-1.004 2.832-.436 1.01.534 1.496 1.49 1.678 2.545.18 1.048.07 2.238-.142 3.338a20.923 20.923 0 0 1-.808 2.91 22.532 22.532 0 0 1-.45 1.169l-.028.068-.008.018-.002.005-.001.001-.355-.156.355.157-.138.312-.328-.097c-4.457-1.32-6.556-2.9-7.402-4.365-.864-1.495-.385-2.797.11-3.385.298-.355.743-.483 1.158-.516.42-.032.876.027 1.282.113.41.086.79.203 1.065.298.171-.722.603-1.46 1.182-1.979Zm-1.02 2.867h-.001l-.005-.003a3.164 3.164 0 0 0-.102-.04 8.68 8.68 0 0 0-1.279-.384c-.372-.078-.746-.122-1.062-.098-.321.025-.519.116-.624.242-.315.374-.71 1.324-.032 2.496.677 1.172 2.458 2.63 6.617 3.909l.003-.008c.085-.21.203-.513.333-.883.262-.742.573-1.744.777-2.799.206-1.06.297-2.143.14-3.058-.157-.908-.548-1.606-1.276-1.99V1.39c-.702-.372-1.386-.177-1.951.329-.58.518-.963 1.31-1 1.952l-.032.548-.506-.212Z" fill="#10122E"/></svg>